# xmcd
#
# Track frame offsets:
#	151
#	16471
#	32765
#	51669
#	65870
#	84913
#	100241
#	120776
#	145263
#	161592
#	180476
#	197280
#	217371
#	231690
#	248972
#	262309
#	279513
#	297639
#	319535
#	335211
#
# Disc length: 4738 seconds
#
# Revision: 0
# Processed by: cddbd v1.5.2PL0 Copyright (c) Steve Scherf et al.
# Submitted via: EasyCDDAExtractor 10.0.2.1
#
DISCID=40128014
DTITLE=s - To fili tis zois
DYEAR=1900
DGENRE=
TTITLE0=To fili tis zois
TTITLE1=kai leei, leei
TTITLE2=sadasd
TTITLE3=Lupamai ilikrina
TTITLE4=Pios exei logo stin agapi
TTITLE5=Zise tin zoi
TTITLE6=Pio poli
TTITLE7=Thelo
TTITLE8=Afieromeno
TTITLE9=An esy m'agapas
TTITLE10=Pes tou
TTITLE11=An tha mporousa ...
TTITLE12=Fos
TTITLE13=Kleise ta matia
TTITLE14=Kapoion allon
TTITLE15=asas
TTITLE16=Trekse
TTITLE17=Oso ego, kanenas
TTITLE18=Se poion na miliso
TTITLE19=Zilia monaksia
EXTD=
EXTT0=
EXTT1=
EXTT2=
EXTT3=
EXTT4=
EXTT5=
EXTT6=
EXTT7=
EXTT8=
EXTT9=
EXTT10=
EXTT11=
EXTT12=
EXTT13=
EXTT14=
EXTT15=
EXTT16=
EXTT17=
EXTT18=
EXTT19=
PLAYORDER=
